%TF.GenerationSoftware,KiCad,Pcbnew,6.0.9-8da3e8f707~117~ubuntu18.04.1*%
%TF.CreationDate,2023-01-21T20:22:22-05:00*%
%TF.ProjectId,makers-motor-board,6d616b65-7273-42d6-9d6f-746f722d626f,rev?*%
%TF.SameCoordinates,Original*%
%TF.FileFunction,Soldermask,Top*%
%TF.FilePolarity,Negative*%
%FSLAX46Y46*%
G04 Gerber Fmt 4.6, Leading zero omitted, Abs format (unit mm)*
G04 Created by KiCad (PCBNEW 6.0.9-8da3e8f707~117~ubuntu18.04.1) date 2023-01-21 20:22:22*
%MOMM*%
%LPD*%
G01*
G04 APERTURE LIST*
%ADD10R,1.700000X1.700000*%
%ADD11O,1.700000X1.700000*%
%ADD12C,3.000000*%
%ADD13R,3.000000X3.000000*%
%ADD14C,1.524000*%
%ADD15R,1.524000X1.524000*%
%ADD16R,1.600000X1.600000*%
%ADD17C,1.600000*%
%ADD18C,6.400000*%
%ADD19O,3.500000X3.500000*%
%ADD20R,1.905000X2.000000*%
%ADD21O,1.905000X2.000000*%
%ADD22O,1.600000X1.600000*%
G04 APERTURE END LIST*
D10*
%TO.C,J8*%
X153337500Y-94925000D03*
D11*
X155877500Y-94925000D03*
%TD*%
D10*
%TO.C,J7*%
X153337500Y-90925000D03*
D11*
X155877500Y-90925000D03*
%TD*%
D12*
%TO.C,J6*%
X175978500Y-122336000D03*
D13*
X175978500Y-127416000D03*
%TD*%
%TO.C,J5*%
X126575500Y-122000000D03*
D12*
X126575500Y-127080000D03*
%TD*%
D10*
%TO.C,J4*%
X133362500Y-103615000D03*
D11*
X133362500Y-106155000D03*
X133362500Y-108695000D03*
X133362500Y-111235000D03*
X133362500Y-113775000D03*
X133362500Y-116315000D03*
X133362500Y-118855000D03*
X133362500Y-121395000D03*
X133362500Y-123935000D03*
X133362500Y-126475000D03*
X133362500Y-129015000D03*
X133362500Y-131555000D03*
X133362500Y-134095000D03*
X133362500Y-136635000D03*
X133362500Y-139175000D03*
%TD*%
%TO.C,J3*%
X169362500Y-103615000D03*
X169362500Y-106155000D03*
X169362500Y-108695000D03*
X169362500Y-111235000D03*
X169362500Y-113775000D03*
X169362500Y-116315000D03*
X169362500Y-118855000D03*
X169362500Y-121395000D03*
X169362500Y-123935000D03*
X169362500Y-126475000D03*
X169362500Y-129015000D03*
X169362500Y-131555000D03*
X169362500Y-134095000D03*
X169362500Y-136635000D03*
D10*
X169362500Y-139175000D03*
%TD*%
D13*
%TO.C,J2*%
X170800000Y-93290000D03*
D12*
X170800000Y-88210000D03*
%TD*%
D13*
%TO.C,J1*%
X131857500Y-88210000D03*
D12*
X131857500Y-93290000D03*
%TD*%
D14*
%TO.C,U2*%
X164062500Y-103465000D03*
X164062500Y-106005000D03*
X164062500Y-108545000D03*
X164062500Y-111085000D03*
X164062500Y-113625000D03*
X164062500Y-116165000D03*
X164062500Y-118705000D03*
X164062500Y-121245000D03*
X164062500Y-123785000D03*
X164062500Y-126325000D03*
X164062500Y-128865000D03*
X164062500Y-131405000D03*
X164062500Y-133945000D03*
X164062500Y-136485000D03*
X164062500Y-139025000D03*
X138662500Y-139025000D03*
X138662500Y-136485000D03*
X138662500Y-133945000D03*
X138662500Y-131405000D03*
X138662500Y-128865000D03*
X138662500Y-126325000D03*
X138662500Y-123785000D03*
X138662500Y-121245000D03*
X138662500Y-118705000D03*
X138662500Y-116165000D03*
X138662500Y-113625000D03*
X138662500Y-111085000D03*
X138662500Y-108545000D03*
X138662500Y-106005000D03*
D15*
X138662500Y-103465000D03*
%TD*%
D16*
%TO.C,C1*%
X152362500Y-78925000D03*
D17*
X152362500Y-82425000D03*
%TD*%
D18*
%TO.C,H2*%
X174250000Y-144750000D03*
%TD*%
%TO.C,H3*%
X128500000Y-78000000D03*
%TD*%
D19*
%TO.C,U1*%
X142397500Y-80780000D03*
D20*
X139857500Y-97440000D03*
D21*
X142397500Y-97440000D03*
X144937500Y-97440000D03*
%TD*%
D22*
%TO.C,U3*%
X156362500Y-118015000D03*
X156362500Y-120555000D03*
X156362500Y-123095000D03*
X156362500Y-125635000D03*
X156362500Y-128175000D03*
X156362500Y-130715000D03*
X156362500Y-133255000D03*
X156362500Y-135795000D03*
X148742500Y-135795000D03*
X148742500Y-133255000D03*
X148742500Y-130715000D03*
X148742500Y-128175000D03*
X148742500Y-125635000D03*
X148742500Y-123095000D03*
X148742500Y-120555000D03*
D16*
X148742500Y-118015000D03*
%TD*%
D18*
%TO.C,H1*%
X128500000Y-144750000D03*
%TD*%
D16*
%TO.C,C2*%
X162897500Y-78925000D03*
D17*
X162897500Y-82425000D03*
%TD*%
D18*
%TO.C,H4*%
X174250000Y-78000000D03*
%TD*%
M02*
