M48
; DRILL file {KiCad 6.0.9-8da3e8f707~117~ubuntu18.04.1} date Sat Jan 21 20:22:19 2023
; FORMAT={-:-/ absolute / inch / decimal}
; #@! TF.CreationDate,2023-01-21T20:22:19-05:00
; #@! TF.GenerationSoftware,Kicad,Pcbnew,6.0.9-8da3e8f707~117~ubuntu18.04.1
; #@! TF.FileFunction,Plated,1,2,PTH
FMAT,2
INCH
; #@! TA.AperFunction,Plated,PTH,ViaDrill
T1C0.0157
; #@! TA.AperFunction,Plated,PTH,ComponentDrill
T2C0.0300
; #@! TA.AperFunction,Plated,PTH,ComponentDrill
T3C0.0315
; #@! TA.AperFunction,Plated,PTH,ComponentDrill
T4C0.0394
; #@! TA.AperFunction,Plated,PTH,ComponentDrill
T5C0.0433
; #@! TA.AperFunction,Plated,PTH,ComponentDrill
T6C0.0598
; #@! TA.AperFunction,Plated,PTH,ComponentDrill
T7C0.1260
%
G90
G05
T1
X5.6836Y-4.9478
X5.7229Y-5.2825
X5.7328Y-4.4754
X5.7426Y-4.6526
X5.9788Y-5.2628
X5.9788Y-5.3022
X5.9788Y-5.3415
X6.0379Y-4.5443
X6.0576Y-5.2037
X6.0969Y-5.1742
X6.1068Y-4.3967
T2
X5.4592Y-4.0734
X5.4592Y-4.1734
X5.4592Y-4.2734
X5.4592Y-4.3734
X5.4592Y-4.4734
X5.4592Y-4.5734
X5.4592Y-4.6734
X5.4592Y-4.7734
X5.4592Y-4.8734
X5.4592Y-4.9734
X5.4592Y-5.0734
X5.4592Y-5.1734
X5.4592Y-5.2734
X5.4592Y-5.3734
X5.4592Y-5.4734
X6.4592Y-4.0734
X6.4592Y-4.1734
X6.4592Y-4.2734
X6.4592Y-4.3734
X6.4592Y-4.4734
X6.4592Y-4.5734
X6.4592Y-4.6734
X6.4592Y-4.7734
X6.4592Y-4.8734
X6.4592Y-4.9734
X6.4592Y-5.0734
X6.4592Y-5.1734
X6.4592Y-5.2734
X6.4592Y-5.3734
X6.4592Y-5.4734
T3
X5.856Y-4.6463
X5.856Y-4.7463
X5.856Y-4.8463
X5.856Y-4.9463
X5.856Y-5.0463
X5.856Y-5.1463
X5.856Y-5.2463
X5.856Y-5.3463
X5.9985Y-3.1073
X5.9985Y-3.2451
X6.156Y-4.6463
X6.156Y-4.7463
X6.156Y-4.8463
X6.156Y-4.9463
X6.156Y-5.0463
X6.156Y-5.1463
X6.156Y-5.2463
X6.156Y-5.3463
X6.4133Y-3.1073
X6.4133Y-3.2451
T4
X5.2505Y-4.0793
X5.2505Y-4.1793
X5.2505Y-4.2793
X5.2505Y-4.3793
X5.2505Y-4.4793
X5.2505Y-4.5793
X5.2505Y-4.6793
X5.2505Y-4.7793
X5.2505Y-4.8793
X5.2505Y-4.9793
X5.2505Y-5.0793
X5.2505Y-5.1793
X5.2505Y-5.2793
X5.2505Y-5.3793
X5.2505Y-5.4793
X6.0369Y-3.5797
X6.0369Y-3.7372
X6.1369Y-3.5797
X6.1369Y-3.7372
X6.6678Y-4.0793
X6.6678Y-4.1793
X6.6678Y-4.2793
X6.6678Y-4.3793
X6.6678Y-4.4793
X6.6678Y-4.5793
X6.6678Y-4.6793
X6.6678Y-4.7793
X6.6678Y-4.8793
X6.6678Y-4.9793
X6.6678Y-5.0793
X6.6678Y-5.1793
X6.6678Y-5.2793
X6.6678Y-5.3793
X6.6678Y-5.4793
T5
X5.5062Y-3.8362
X5.6062Y-3.8362
X5.7062Y-3.8362
T6
X4.9833Y-4.8031
X4.9833Y-5.0031
X5.1912Y-3.4728
X5.1912Y-3.6728
X6.7244Y-3.4728
X6.7244Y-3.6728
X6.9283Y-4.8164
X6.9283Y-5.0164
T7
X5.0591Y-3.0709
X5.0591Y-5.6988
X6.8602Y-3.0709
X6.8602Y-5.6988
T0
M30
