%TF.GenerationSoftware,KiCad,Pcbnew,6.0.9-8da3e8f707~117~ubuntu18.04.1*%
%TF.CreationDate,2023-01-21T20:22:22-05:00*%
%TF.ProjectId,makers-motor-board,6d616b65-7273-42d6-9d6f-746f722d626f,rev?*%
%TF.SameCoordinates,Original*%
%TF.FileFunction,Legend,Top*%
%TF.FilePolarity,Positive*%
%FSLAX46Y46*%
G04 Gerber Fmt 4.6, Leading zero omitted, Abs format (unit mm)*
G04 Created by KiCad (PCBNEW 6.0.9-8da3e8f707~117~ubuntu18.04.1) date 2023-01-21 20:22:22*
%MOMM*%
%LPD*%
G01*
G04 APERTURE LIST*
%ADD10C,0.150000*%
%ADD11C,0.300000*%
%ADD12C,0.120000*%
%ADD13C,0.800000*%
%ADD14C,1.000000*%
G04 APERTURE END LIST*
D10*
X175209880Y-113505952D02*
X174209880Y-113505952D01*
X174924166Y-113172619D01*
X174209880Y-112839285D01*
X175209880Y-112839285D01*
X174924166Y-112410714D02*
X174924166Y-111934523D01*
X175209880Y-112505952D02*
X174209880Y-112172619D01*
X175209880Y-111839285D01*
X174209880Y-111601190D02*
X175209880Y-110934523D01*
X174209880Y-110934523D02*
X175209880Y-111601190D01*
X175209880Y-109791666D02*
X174209880Y-109791666D01*
X174924166Y-109458333D01*
X174209880Y-109125000D01*
X175209880Y-109125000D01*
X174209880Y-108458333D02*
X174209880Y-108267857D01*
X174257500Y-108172619D01*
X174352738Y-108077380D01*
X174543214Y-108029761D01*
X174876547Y-108029761D01*
X175067023Y-108077380D01*
X175162261Y-108172619D01*
X175209880Y-108267857D01*
X175209880Y-108458333D01*
X175162261Y-108553571D01*
X175067023Y-108648809D01*
X174876547Y-108696428D01*
X174543214Y-108696428D01*
X174352738Y-108648809D01*
X174257500Y-108553571D01*
X174209880Y-108458333D01*
X174209880Y-107744047D02*
X174209880Y-107172619D01*
X175209880Y-107458333D02*
X174209880Y-107458333D01*
X174209880Y-106648809D02*
X174209880Y-106458333D01*
X174257500Y-106363095D01*
X174352738Y-106267857D01*
X174543214Y-106220238D01*
X174876547Y-106220238D01*
X175067023Y-106267857D01*
X175162261Y-106363095D01*
X175209880Y-106458333D01*
X175209880Y-106648809D01*
X175162261Y-106744047D01*
X175067023Y-106839285D01*
X174876547Y-106886904D01*
X174543214Y-106886904D01*
X174352738Y-106839285D01*
X174257500Y-106744047D01*
X174209880Y-106648809D01*
X175209880Y-105220238D02*
X174733690Y-105553571D01*
X175209880Y-105791666D02*
X174209880Y-105791666D01*
X174209880Y-105410714D01*
X174257500Y-105315476D01*
X174305119Y-105267857D01*
X174400357Y-105220238D01*
X174543214Y-105220238D01*
X174638452Y-105267857D01*
X174686071Y-105315476D01*
X174733690Y-105410714D01*
X174733690Y-105791666D01*
X175114642Y-103458333D02*
X175162261Y-103505952D01*
X175209880Y-103648809D01*
X175209880Y-103744047D01*
X175162261Y-103886904D01*
X175067023Y-103982142D01*
X174971785Y-104029761D01*
X174781309Y-104077380D01*
X174638452Y-104077380D01*
X174447976Y-104029761D01*
X174352738Y-103982142D01*
X174257500Y-103886904D01*
X174209880Y-103744047D01*
X174209880Y-103648809D01*
X174257500Y-103505952D01*
X174305119Y-103458333D01*
X174209880Y-103029761D02*
X175019404Y-103029761D01*
X175114642Y-102982142D01*
X175162261Y-102934523D01*
X175209880Y-102839285D01*
X175209880Y-102648809D01*
X175162261Y-102553571D01*
X175114642Y-102505952D01*
X175019404Y-102458333D01*
X174209880Y-102458333D01*
X175209880Y-101410714D02*
X174733690Y-101744047D01*
X175209880Y-101982142D02*
X174209880Y-101982142D01*
X174209880Y-101601190D01*
X174257500Y-101505952D01*
X174305119Y-101458333D01*
X174400357Y-101410714D01*
X174543214Y-101410714D01*
X174638452Y-101458333D01*
X174686071Y-101505952D01*
X174733690Y-101601190D01*
X174733690Y-101982142D01*
X175209880Y-100410714D02*
X174733690Y-100744047D01*
X175209880Y-100982142D02*
X174209880Y-100982142D01*
X174209880Y-100601190D01*
X174257500Y-100505952D01*
X174305119Y-100458333D01*
X174400357Y-100410714D01*
X174543214Y-100410714D01*
X174638452Y-100458333D01*
X174686071Y-100505952D01*
X174733690Y-100601190D01*
X174733690Y-100982142D01*
X174686071Y-99982142D02*
X174686071Y-99648809D01*
X175209880Y-99505952D02*
X175209880Y-99982142D01*
X174209880Y-99982142D01*
X174209880Y-99505952D01*
X175209880Y-99077380D02*
X174209880Y-99077380D01*
X175209880Y-98505952D01*
X174209880Y-98505952D01*
X174209880Y-98172619D02*
X174209880Y-97601190D01*
X175209880Y-97886904D02*
X174209880Y-97886904D01*
X175819880Y-112267857D02*
X175819880Y-112458333D01*
X175867500Y-112553571D01*
X175915119Y-112601190D01*
X176057976Y-112696428D01*
X176248452Y-112744047D01*
X176629404Y-112744047D01*
X176724642Y-112696428D01*
X176772261Y-112648809D01*
X176819880Y-112553571D01*
X176819880Y-112363095D01*
X176772261Y-112267857D01*
X176724642Y-112220238D01*
X176629404Y-112172619D01*
X176391309Y-112172619D01*
X176296071Y-112220238D01*
X176248452Y-112267857D01*
X176200833Y-112363095D01*
X176200833Y-112553571D01*
X176248452Y-112648809D01*
X176296071Y-112696428D01*
X176391309Y-112744047D01*
X175819880Y-111553571D02*
X175819880Y-111458333D01*
X175867500Y-111363095D01*
X175915119Y-111315476D01*
X176010357Y-111267857D01*
X176200833Y-111220238D01*
X176438928Y-111220238D01*
X176629404Y-111267857D01*
X176724642Y-111315476D01*
X176772261Y-111363095D01*
X176819880Y-111458333D01*
X176819880Y-111553571D01*
X176772261Y-111648809D01*
X176724642Y-111696428D01*
X176629404Y-111744047D01*
X176438928Y-111791666D01*
X176200833Y-111791666D01*
X176010357Y-111744047D01*
X175915119Y-111696428D01*
X175867500Y-111648809D01*
X175819880Y-111553571D01*
X175819880Y-110601190D02*
X175819880Y-110505952D01*
X175867500Y-110410714D01*
X175915119Y-110363095D01*
X176010357Y-110315476D01*
X176200833Y-110267857D01*
X176438928Y-110267857D01*
X176629404Y-110315476D01*
X176724642Y-110363095D01*
X176772261Y-110410714D01*
X176819880Y-110505952D01*
X176819880Y-110601190D01*
X176772261Y-110696428D01*
X176724642Y-110744047D01*
X176629404Y-110791666D01*
X176438928Y-110839285D01*
X176200833Y-110839285D01*
X176010357Y-110791666D01*
X175915119Y-110744047D01*
X175867500Y-110696428D01*
X175819880Y-110601190D01*
X176819880Y-109839285D02*
X176153214Y-109839285D01*
X176248452Y-109839285D02*
X176200833Y-109791666D01*
X176153214Y-109696428D01*
X176153214Y-109553571D01*
X176200833Y-109458333D01*
X176296071Y-109410714D01*
X176819880Y-109410714D01*
X176296071Y-109410714D02*
X176200833Y-109363095D01*
X176153214Y-109267857D01*
X176153214Y-109125000D01*
X176200833Y-109029761D01*
X176296071Y-108982142D01*
X176819880Y-108982142D01*
X176534166Y-108553571D02*
X176534166Y-108077380D01*
X176819880Y-108648809D02*
X175819880Y-108315476D01*
X176819880Y-107982142D01*
X177200833Y-106601190D02*
X177153214Y-106648809D01*
X177010357Y-106744047D01*
X176915119Y-106791666D01*
X176772261Y-106839285D01*
X176534166Y-106886904D01*
X176343690Y-106886904D01*
X176105595Y-106839285D01*
X175962738Y-106791666D01*
X175867500Y-106744047D01*
X175724642Y-106648809D01*
X175677023Y-106601190D01*
X176153214Y-106220238D02*
X177153214Y-106220238D01*
X176200833Y-106220238D02*
X176153214Y-106125000D01*
X176153214Y-105934523D01*
X176200833Y-105839285D01*
X176248452Y-105791666D01*
X176343690Y-105744047D01*
X176629404Y-105744047D01*
X176724642Y-105791666D01*
X176772261Y-105839285D01*
X176819880Y-105934523D01*
X176819880Y-106125000D01*
X176772261Y-106220238D01*
X176772261Y-104934523D02*
X176819880Y-105029761D01*
X176819880Y-105220238D01*
X176772261Y-105315476D01*
X176677023Y-105363095D01*
X176296071Y-105363095D01*
X176200833Y-105315476D01*
X176153214Y-105220238D01*
X176153214Y-105029761D01*
X176200833Y-104934523D01*
X176296071Y-104886904D01*
X176391309Y-104886904D01*
X176486547Y-105363095D01*
X176819880Y-104458333D02*
X176153214Y-104458333D01*
X176343690Y-104458333D02*
X176248452Y-104410714D01*
X176200833Y-104363095D01*
X176153214Y-104267857D01*
X176153214Y-104172619D01*
X176819880Y-103077380D02*
X176153214Y-103077380D01*
X176248452Y-103077380D02*
X176200833Y-103029761D01*
X176153214Y-102934523D01*
X176153214Y-102791666D01*
X176200833Y-102696428D01*
X176296071Y-102648809D01*
X176819880Y-102648809D01*
X176296071Y-102648809D02*
X176200833Y-102601190D01*
X176153214Y-102505952D01*
X176153214Y-102363095D01*
X176200833Y-102267857D01*
X176296071Y-102220238D01*
X176819880Y-102220238D01*
X176819880Y-101601190D02*
X176772261Y-101696428D01*
X176724642Y-101744047D01*
X176629404Y-101791666D01*
X176343690Y-101791666D01*
X176248452Y-101744047D01*
X176200833Y-101696428D01*
X176153214Y-101601190D01*
X176153214Y-101458333D01*
X176200833Y-101363095D01*
X176248452Y-101315476D01*
X176343690Y-101267857D01*
X176629404Y-101267857D01*
X176724642Y-101315476D01*
X176772261Y-101363095D01*
X176819880Y-101458333D01*
X176819880Y-101601190D01*
X176153214Y-100982142D02*
X176153214Y-100601190D01*
X175819880Y-100839285D02*
X176677023Y-100839285D01*
X176772261Y-100791666D01*
X176819880Y-100696428D01*
X176819880Y-100601190D01*
X176819880Y-100125000D02*
X176772261Y-100220238D01*
X176724642Y-100267857D01*
X176629404Y-100315476D01*
X176343690Y-100315476D01*
X176248452Y-100267857D01*
X176200833Y-100220238D01*
X176153214Y-100125000D01*
X176153214Y-99982142D01*
X176200833Y-99886904D01*
X176248452Y-99839285D01*
X176343690Y-99791666D01*
X176629404Y-99791666D01*
X176724642Y-99839285D01*
X176772261Y-99886904D01*
X176819880Y-99982142D01*
X176819880Y-100125000D01*
X176819880Y-99363095D02*
X176153214Y-99363095D01*
X176343690Y-99363095D02*
X176248452Y-99315476D01*
X176200833Y-99267857D01*
X176153214Y-99172619D01*
X176153214Y-99077380D01*
X177200833Y-98839285D02*
X177153214Y-98791666D01*
X177010357Y-98696428D01*
X176915119Y-98648809D01*
X176772261Y-98601190D01*
X176534166Y-98553571D01*
X176343690Y-98553571D01*
X176105595Y-98601190D01*
X175962738Y-98648809D01*
X175867500Y-98696428D01*
X175724642Y-98791666D01*
X175677023Y-98839285D01*
D11*
X171952380Y-82904761D02*
X172619047Y-84904761D01*
X173285714Y-82904761D01*
X175000000Y-84904761D02*
X173857142Y-84904761D01*
X174428571Y-84904761D02*
X174428571Y-82904761D01*
X174238095Y-83190476D01*
X174047619Y-83380952D01*
X173857142Y-83476190D01*
X175857142Y-84714285D02*
X175952380Y-84809523D01*
X175857142Y-84904761D01*
X175761904Y-84809523D01*
X175857142Y-84714285D01*
X175857142Y-84904761D01*
X177190476Y-82904761D02*
X177380952Y-82904761D01*
X177571428Y-83000000D01*
X177666666Y-83095238D01*
X177761904Y-83285714D01*
X177857142Y-83666666D01*
X177857142Y-84142857D01*
X177761904Y-84523809D01*
X177666666Y-84714285D01*
X177571428Y-84809523D01*
X177380952Y-84904761D01*
X177190476Y-84904761D01*
X177000000Y-84809523D01*
X176904761Y-84714285D01*
X176809523Y-84523809D01*
X176714285Y-84142857D01*
X176714285Y-83666666D01*
X176809523Y-83285714D01*
X176904761Y-83095238D01*
X177000000Y-83000000D01*
X177190476Y-82904761D01*
D10*
X125850595Y-132567857D02*
X127374404Y-132567857D01*
X126612500Y-133329761D02*
X126612500Y-131805952D01*
X125850595Y-119317857D02*
X127374404Y-119317857D01*
X175100595Y-118567857D02*
X176624404Y-118567857D01*
X175100595Y-131817857D02*
X176624404Y-131817857D01*
X175862500Y-132579761D02*
X175862500Y-131055952D01*
X173172023Y-116627380D02*
X173172023Y-115627380D01*
X173505357Y-116341666D01*
X173838690Y-115627380D01*
X173838690Y-116627380D01*
X174457738Y-116627380D02*
X174362500Y-116579761D01*
X174314880Y-116532142D01*
X174267261Y-116436904D01*
X174267261Y-116151190D01*
X174314880Y-116055952D01*
X174362500Y-116008333D01*
X174457738Y-115960714D01*
X174600595Y-115960714D01*
X174695833Y-116008333D01*
X174743452Y-116055952D01*
X174791071Y-116151190D01*
X174791071Y-116436904D01*
X174743452Y-116532142D01*
X174695833Y-116579761D01*
X174600595Y-116627380D01*
X174457738Y-116627380D01*
X175076785Y-115960714D02*
X175457738Y-115960714D01*
X175219642Y-115627380D02*
X175219642Y-116484523D01*
X175267261Y-116579761D01*
X175362500Y-116627380D01*
X175457738Y-116627380D01*
X175933928Y-116627380D02*
X175838690Y-116579761D01*
X175791071Y-116532142D01*
X175743452Y-116436904D01*
X175743452Y-116151190D01*
X175791071Y-116055952D01*
X175838690Y-116008333D01*
X175933928Y-115960714D01*
X176076785Y-115960714D01*
X176172023Y-116008333D01*
X176219642Y-116055952D01*
X176267261Y-116151190D01*
X176267261Y-116436904D01*
X176219642Y-116532142D01*
X176172023Y-116579761D01*
X176076785Y-116627380D01*
X175933928Y-116627380D01*
X176695833Y-116627380D02*
X176695833Y-115960714D01*
X176695833Y-116151190D02*
X176743452Y-116055952D01*
X176791071Y-116008333D01*
X176886309Y-115960714D01*
X176981547Y-115960714D01*
X178029166Y-115722619D02*
X178076785Y-115675000D01*
X178172023Y-115627380D01*
X178410119Y-115627380D01*
X178505357Y-115675000D01*
X178552976Y-115722619D01*
X178600595Y-115817857D01*
X178600595Y-115913095D01*
X178552976Y-116055952D01*
X177981547Y-116627380D01*
X178600595Y-116627380D01*
X124422023Y-116377380D02*
X124422023Y-115377380D01*
X124755357Y-116091666D01*
X125088690Y-115377380D01*
X125088690Y-116377380D01*
X125707738Y-116377380D02*
X125612500Y-116329761D01*
X125564880Y-116282142D01*
X125517261Y-116186904D01*
X125517261Y-115901190D01*
X125564880Y-115805952D01*
X125612500Y-115758333D01*
X125707738Y-115710714D01*
X125850595Y-115710714D01*
X125945833Y-115758333D01*
X125993452Y-115805952D01*
X126041071Y-115901190D01*
X126041071Y-116186904D01*
X125993452Y-116282142D01*
X125945833Y-116329761D01*
X125850595Y-116377380D01*
X125707738Y-116377380D01*
X126326785Y-115710714D02*
X126707738Y-115710714D01*
X126469642Y-115377380D02*
X126469642Y-116234523D01*
X126517261Y-116329761D01*
X126612500Y-116377380D01*
X126707738Y-116377380D01*
X127183928Y-116377380D02*
X127088690Y-116329761D01*
X127041071Y-116282142D01*
X126993452Y-116186904D01*
X126993452Y-115901190D01*
X127041071Y-115805952D01*
X127088690Y-115758333D01*
X127183928Y-115710714D01*
X127326785Y-115710714D01*
X127422023Y-115758333D01*
X127469642Y-115805952D01*
X127517261Y-115901190D01*
X127517261Y-116186904D01*
X127469642Y-116282142D01*
X127422023Y-116329761D01*
X127326785Y-116377380D01*
X127183928Y-116377380D01*
X127945833Y-116377380D02*
X127945833Y-115710714D01*
X127945833Y-115901190D02*
X127993452Y-115805952D01*
X128041071Y-115758333D01*
X128136309Y-115710714D01*
X128231547Y-115710714D01*
X129850595Y-116377380D02*
X129279166Y-116377380D01*
X129564880Y-116377380D02*
X129564880Y-115377380D01*
X129469642Y-115520238D01*
X129374404Y-115615476D01*
X129279166Y-115663095D01*
X126005357Y-98072380D02*
X126005357Y-97072380D01*
X126386309Y-97072380D01*
X126481547Y-97120000D01*
X126529166Y-97167619D01*
X126576785Y-97262857D01*
X126576785Y-97405714D01*
X126529166Y-97500952D01*
X126481547Y-97548571D01*
X126386309Y-97596190D01*
X126005357Y-97596190D01*
X126910119Y-97072380D02*
X127148214Y-98072380D01*
X127338690Y-97358095D01*
X127529166Y-98072380D01*
X127767261Y-97072380D01*
X128719642Y-98072380D02*
X128386309Y-97596190D01*
X128148214Y-98072380D02*
X128148214Y-97072380D01*
X128529166Y-97072380D01*
X128624404Y-97120000D01*
X128672023Y-97167619D01*
X128719642Y-97262857D01*
X128719642Y-97405714D01*
X128672023Y-97500952D01*
X128624404Y-97548571D01*
X128529166Y-97596190D01*
X128148214Y-97596190D01*
X129910119Y-98072380D02*
X129910119Y-97072380D01*
X130386309Y-98072380D02*
X130386309Y-97072380D01*
X130957738Y-98072380D01*
X130957738Y-97072380D01*
X126338690Y-99015714D02*
X126338690Y-99682380D01*
X126100595Y-98634761D02*
X125862500Y-99349047D01*
X126481547Y-99349047D01*
X126862500Y-99587142D02*
X126910119Y-99634761D01*
X126862500Y-99682380D01*
X126814880Y-99634761D01*
X126862500Y-99587142D01*
X126862500Y-99682380D01*
X127814880Y-98682380D02*
X127338690Y-98682380D01*
X127291071Y-99158571D01*
X127338690Y-99110952D01*
X127433928Y-99063333D01*
X127672023Y-99063333D01*
X127767261Y-99110952D01*
X127814880Y-99158571D01*
X127862500Y-99253809D01*
X127862500Y-99491904D01*
X127814880Y-99587142D01*
X127767261Y-99634761D01*
X127672023Y-99682380D01*
X127433928Y-99682380D01*
X127338690Y-99634761D01*
X127291071Y-99587142D01*
X128291071Y-99301428D02*
X129052976Y-99301428D01*
X129433928Y-98682380D02*
X130052976Y-98682380D01*
X129719642Y-99063333D01*
X129862500Y-99063333D01*
X129957738Y-99110952D01*
X130005357Y-99158571D01*
X130052976Y-99253809D01*
X130052976Y-99491904D01*
X130005357Y-99587142D01*
X129957738Y-99634761D01*
X129862500Y-99682380D01*
X129576785Y-99682380D01*
X129481547Y-99634761D01*
X129433928Y-99587142D01*
X130672023Y-98682380D02*
X130767261Y-98682380D01*
X130862500Y-98730000D01*
X130910119Y-98777619D01*
X130957738Y-98872857D01*
X131005357Y-99063333D01*
X131005357Y-99301428D01*
X130957738Y-99491904D01*
X130910119Y-99587142D01*
X130862500Y-99634761D01*
X130767261Y-99682380D01*
X130672023Y-99682380D01*
X130576785Y-99634761D01*
X130529166Y-99587142D01*
X130481547Y-99491904D01*
X130433928Y-99301428D01*
X130433928Y-99063333D01*
X130481547Y-98872857D01*
X130529166Y-98777619D01*
X130576785Y-98730000D01*
X130672023Y-98682380D01*
X131291071Y-98682380D02*
X131624404Y-99682380D01*
X131957738Y-98682380D01*
X179800000Y-85670000D02*
X177425000Y-85670000D01*
X177425000Y-85670000D02*
X177425000Y-95920000D01*
X177425000Y-95920000D02*
X179800000Y-95920000D01*
X179800000Y-95920000D02*
X179800000Y-85670000D01*
X176871428Y-93312857D02*
X175728571Y-93312857D01*
X179097619Y-90229523D02*
X179097619Y-89753333D01*
X178621428Y-89705714D01*
X178669047Y-89753333D01*
X178716666Y-89848571D01*
X178716666Y-90086666D01*
X178669047Y-90181904D01*
X178621428Y-90229523D01*
X178526190Y-90277142D01*
X178288095Y-90277142D01*
X178192857Y-90229523D01*
X178145238Y-90181904D01*
X178097619Y-90086666D01*
X178097619Y-89848571D01*
X178145238Y-89753333D01*
X178192857Y-89705714D01*
X179097619Y-90562857D02*
X178097619Y-90896190D01*
X179097619Y-91229523D01*
X175050000Y-95920000D02*
X179800000Y-95920000D01*
X179800000Y-95920000D02*
X179800000Y-85670000D01*
X179800000Y-85670000D02*
X175050000Y-85670000D01*
X175050000Y-85670000D02*
X175050000Y-95920000D01*
X176871428Y-88312857D02*
X175728571Y-88312857D01*
X176300000Y-87741428D02*
X176300000Y-88884285D01*
X122862500Y-95925000D02*
X125237500Y-95925000D01*
X125237500Y-95925000D02*
X125237500Y-85675000D01*
X125237500Y-85675000D02*
X122862500Y-85675000D01*
X122862500Y-85675000D02*
X122862500Y-95925000D01*
X127612500Y-85675000D02*
X122862500Y-85675000D01*
X122862500Y-85675000D02*
X122862500Y-95925000D01*
X122862500Y-95925000D02*
X127612500Y-95925000D01*
X127612500Y-95925000D02*
X127612500Y-85675000D01*
X124564880Y-93651190D02*
X123564880Y-93651190D01*
X123564880Y-93270238D01*
X123612500Y-93175000D01*
X123660119Y-93127380D01*
X123755357Y-93079761D01*
X123898214Y-93079761D01*
X123993452Y-93127380D01*
X124041071Y-93175000D01*
X124088690Y-93270238D01*
X124088690Y-93651190D01*
X123564880Y-92746428D02*
X124564880Y-92508333D01*
X123850595Y-92317857D01*
X124564880Y-92127380D01*
X123564880Y-91889285D01*
X124564880Y-90936904D02*
X124088690Y-91270238D01*
X124564880Y-91508333D02*
X123564880Y-91508333D01*
X123564880Y-91127380D01*
X123612500Y-91032142D01*
X123660119Y-90984523D01*
X123755357Y-90936904D01*
X123898214Y-90936904D01*
X123993452Y-90984523D01*
X124041071Y-91032142D01*
X124088690Y-91127380D01*
X124088690Y-91508333D01*
X124564880Y-89746428D02*
X123564880Y-89746428D01*
X124564880Y-89270238D02*
X123564880Y-89270238D01*
X124564880Y-88698809D01*
X123564880Y-88698809D01*
X125791071Y-93282142D02*
X126933928Y-93282142D01*
X126362500Y-93853571D02*
X126362500Y-92710714D01*
X125791071Y-88282142D02*
X126933928Y-88282142D01*
X149478500Y-85538000D02*
X164228500Y-85538000D01*
X164228500Y-85538000D02*
X164228500Y-96788000D01*
X164228500Y-96788000D02*
X149478500Y-96788000D01*
X149478500Y-96788000D02*
X149478500Y-85538000D01*
X158252309Y-90740380D02*
X158252309Y-89740380D01*
X158633261Y-89740380D01*
X158728500Y-89788000D01*
X158776119Y-89835619D01*
X158823738Y-89930857D01*
X158823738Y-90073714D01*
X158776119Y-90168952D01*
X158728500Y-90216571D01*
X158633261Y-90264190D01*
X158252309Y-90264190D01*
X159157071Y-89740380D02*
X159395166Y-90740380D01*
X159585642Y-90026095D01*
X159776119Y-90740380D01*
X160014214Y-89740380D01*
X160966595Y-90740380D02*
X160633261Y-90264190D01*
X160395166Y-90740380D02*
X160395166Y-89740380D01*
X160776119Y-89740380D01*
X160871357Y-89788000D01*
X160918976Y-89835619D01*
X160966595Y-89930857D01*
X160966595Y-90073714D01*
X160918976Y-90168952D01*
X160871357Y-90216571D01*
X160776119Y-90264190D01*
X160395166Y-90264190D01*
X162157071Y-90740380D02*
X162157071Y-89740380D01*
X162633261Y-90740380D02*
X162633261Y-89740380D01*
X163204690Y-90740380D01*
X163204690Y-89740380D01*
X159038023Y-93240380D02*
X158561833Y-93240380D01*
X158514214Y-93716571D01*
X158561833Y-93668952D01*
X158657071Y-93621333D01*
X158895166Y-93621333D01*
X158990404Y-93668952D01*
X159038023Y-93716571D01*
X159085642Y-93811809D01*
X159085642Y-94049904D01*
X159038023Y-94145142D01*
X158990404Y-94192761D01*
X158895166Y-94240380D01*
X158657071Y-94240380D01*
X158561833Y-94192761D01*
X158514214Y-94145142D01*
X159371357Y-93240380D02*
X159704690Y-94240380D01*
X160038023Y-93240380D01*
X155279166Y-86822380D02*
X155279166Y-85822380D01*
X155612500Y-86536666D01*
X155945833Y-85822380D01*
X155945833Y-86822380D01*
X156564880Y-86822380D02*
X156469642Y-86774761D01*
X156422023Y-86727142D01*
X156374404Y-86631904D01*
X156374404Y-86346190D01*
X156422023Y-86250952D01*
X156469642Y-86203333D01*
X156564880Y-86155714D01*
X156707738Y-86155714D01*
X156802976Y-86203333D01*
X156850595Y-86250952D01*
X156898214Y-86346190D01*
X156898214Y-86631904D01*
X156850595Y-86727142D01*
X156802976Y-86774761D01*
X156707738Y-86822380D01*
X156564880Y-86822380D01*
X157183928Y-86155714D02*
X157564880Y-86155714D01*
X157326785Y-85822380D02*
X157326785Y-86679523D01*
X157374404Y-86774761D01*
X157469642Y-86822380D01*
X157564880Y-86822380D01*
X158041071Y-86822380D02*
X157945833Y-86774761D01*
X157898214Y-86727142D01*
X157850595Y-86631904D01*
X157850595Y-86346190D01*
X157898214Y-86250952D01*
X157945833Y-86203333D01*
X158041071Y-86155714D01*
X158183928Y-86155714D01*
X158279166Y-86203333D01*
X158326785Y-86250952D01*
X158374404Y-86346190D01*
X158374404Y-86631904D01*
X158326785Y-86727142D01*
X158279166Y-86774761D01*
X158183928Y-86822380D01*
X158041071Y-86822380D01*
X158802976Y-86822380D02*
X158802976Y-86155714D01*
X158802976Y-86346190D02*
X158850595Y-86250952D01*
X158898214Y-86203333D01*
X158993452Y-86155714D01*
X159088690Y-86155714D01*
X151755357Y-87432380D02*
X152088690Y-88432380D01*
X152422023Y-87432380D01*
X152898214Y-88432380D02*
X152802976Y-88384761D01*
X152755357Y-88337142D01*
X152707738Y-88241904D01*
X152707738Y-87956190D01*
X152755357Y-87860952D01*
X152802976Y-87813333D01*
X152898214Y-87765714D01*
X153041071Y-87765714D01*
X153136309Y-87813333D01*
X153183928Y-87860952D01*
X153231547Y-87956190D01*
X153231547Y-88241904D01*
X153183928Y-88337142D01*
X153136309Y-88384761D01*
X153041071Y-88432380D01*
X152898214Y-88432380D01*
X153802976Y-88432380D02*
X153707738Y-88384761D01*
X153660119Y-88289523D01*
X153660119Y-87432380D01*
X154041071Y-87765714D02*
X154422023Y-87765714D01*
X154183928Y-87432380D02*
X154183928Y-88289523D01*
X154231547Y-88384761D01*
X154326785Y-88432380D01*
X154422023Y-88432380D01*
X155183928Y-88432380D02*
X155183928Y-87908571D01*
X155136309Y-87813333D01*
X155041071Y-87765714D01*
X154850595Y-87765714D01*
X154755357Y-87813333D01*
X155183928Y-88384761D02*
X155088690Y-88432380D01*
X154850595Y-88432380D01*
X154755357Y-88384761D01*
X154707738Y-88289523D01*
X154707738Y-88194285D01*
X154755357Y-88099047D01*
X154850595Y-88051428D01*
X155088690Y-88051428D01*
X155183928Y-88003809D01*
X156088690Y-87765714D02*
X156088690Y-88575238D01*
X156041071Y-88670476D01*
X155993452Y-88718095D01*
X155898214Y-88765714D01*
X155755357Y-88765714D01*
X155660119Y-88718095D01*
X156088690Y-88384761D02*
X155993452Y-88432380D01*
X155802976Y-88432380D01*
X155707738Y-88384761D01*
X155660119Y-88337142D01*
X155612500Y-88241904D01*
X155612500Y-87956190D01*
X155660119Y-87860952D01*
X155707738Y-87813333D01*
X155802976Y-87765714D01*
X155993452Y-87765714D01*
X156088690Y-87813333D01*
X156945833Y-88384761D02*
X156850595Y-88432380D01*
X156660119Y-88432380D01*
X156564880Y-88384761D01*
X156517261Y-88289523D01*
X156517261Y-87908571D01*
X156564880Y-87813333D01*
X156660119Y-87765714D01*
X156850595Y-87765714D01*
X156945833Y-87813333D01*
X156993452Y-87908571D01*
X156993452Y-88003809D01*
X156517261Y-88099047D01*
X158136309Y-88384761D02*
X158279166Y-88432380D01*
X158517261Y-88432380D01*
X158612500Y-88384761D01*
X158660119Y-88337142D01*
X158707738Y-88241904D01*
X158707738Y-88146666D01*
X158660119Y-88051428D01*
X158612500Y-88003809D01*
X158517261Y-87956190D01*
X158326785Y-87908571D01*
X158231547Y-87860952D01*
X158183928Y-87813333D01*
X158136309Y-87718095D01*
X158136309Y-87622857D01*
X158183928Y-87527619D01*
X158231547Y-87480000D01*
X158326785Y-87432380D01*
X158564880Y-87432380D01*
X158707738Y-87480000D01*
X159517261Y-88384761D02*
X159422023Y-88432380D01*
X159231547Y-88432380D01*
X159136309Y-88384761D01*
X159088690Y-88289523D01*
X159088690Y-87908571D01*
X159136309Y-87813333D01*
X159231547Y-87765714D01*
X159422023Y-87765714D01*
X159517261Y-87813333D01*
X159564880Y-87908571D01*
X159564880Y-88003809D01*
X159088690Y-88099047D01*
X160136309Y-88432380D02*
X160041071Y-88384761D01*
X159993452Y-88289523D01*
X159993452Y-87432380D01*
X160898214Y-88384761D02*
X160802976Y-88432380D01*
X160612500Y-88432380D01*
X160517261Y-88384761D01*
X160469642Y-88289523D01*
X160469642Y-87908571D01*
X160517261Y-87813333D01*
X160612500Y-87765714D01*
X160802976Y-87765714D01*
X160898214Y-87813333D01*
X160945833Y-87908571D01*
X160945833Y-88003809D01*
X160469642Y-88099047D01*
X161802976Y-88384761D02*
X161707738Y-88432380D01*
X161517261Y-88432380D01*
X161422023Y-88384761D01*
X161374404Y-88337142D01*
X161326785Y-88241904D01*
X161326785Y-87956190D01*
X161374404Y-87860952D01*
X161422023Y-87813333D01*
X161517261Y-87765714D01*
X161707738Y-87765714D01*
X161802976Y-87813333D01*
X162088690Y-87765714D02*
X162469642Y-87765714D01*
X162231547Y-87432380D02*
X162231547Y-88289523D01*
X162279166Y-88384761D01*
X162374404Y-88432380D01*
X162469642Y-88432380D01*
%TO.C,J8*%
X150416666Y-94452380D02*
X150416666Y-95166666D01*
X150369047Y-95309523D01*
X150273809Y-95404761D01*
X150130952Y-95452380D01*
X150035714Y-95452380D01*
X151035714Y-94880952D02*
X150940476Y-94833333D01*
X150892857Y-94785714D01*
X150845238Y-94690476D01*
X150845238Y-94642857D01*
X150892857Y-94547619D01*
X150940476Y-94500000D01*
X151035714Y-94452380D01*
X151226190Y-94452380D01*
X151321428Y-94500000D01*
X151369047Y-94547619D01*
X151416666Y-94642857D01*
X151416666Y-94690476D01*
X151369047Y-94785714D01*
X151321428Y-94833333D01*
X151226190Y-94880952D01*
X151035714Y-94880952D01*
X150940476Y-94928571D01*
X150892857Y-94976190D01*
X150845238Y-95071428D01*
X150845238Y-95261904D01*
X150892857Y-95357142D01*
X150940476Y-95404761D01*
X151035714Y-95452380D01*
X151226190Y-95452380D01*
X151321428Y-95404761D01*
X151369047Y-95357142D01*
X151416666Y-95261904D01*
X151416666Y-95071428D01*
X151369047Y-94976190D01*
X151321428Y-94928571D01*
X151226190Y-94880952D01*
%TO.C,J7*%
X150395166Y-90377380D02*
X150395166Y-91091666D01*
X150347547Y-91234523D01*
X150252309Y-91329761D01*
X150109452Y-91377380D01*
X150014214Y-91377380D01*
X150776119Y-90377380D02*
X151442785Y-90377380D01*
X151014214Y-91377380D01*
%TO.C,J6*%
X172166666Y-118452380D02*
X172166666Y-119166666D01*
X172119047Y-119309523D01*
X172023809Y-119404761D01*
X171880952Y-119452380D01*
X171785714Y-119452380D01*
X173071428Y-118452380D02*
X172880952Y-118452380D01*
X172785714Y-118500000D01*
X172738095Y-118547619D01*
X172642857Y-118690476D01*
X172595238Y-118880952D01*
X172595238Y-119261904D01*
X172642857Y-119357142D01*
X172690476Y-119404761D01*
X172785714Y-119452380D01*
X172976190Y-119452380D01*
X173071428Y-119404761D01*
X173119047Y-119357142D01*
X173166666Y-119261904D01*
X173166666Y-119023809D01*
X173119047Y-118928571D01*
X173071428Y-118880952D01*
X172976190Y-118833333D01*
X172785714Y-118833333D01*
X172690476Y-118880952D01*
X172642857Y-118928571D01*
X172595238Y-119023809D01*
%TO.C,J5*%
X129416666Y-117992380D02*
X129416666Y-118706666D01*
X129369047Y-118849523D01*
X129273809Y-118944761D01*
X129130952Y-118992380D01*
X129035714Y-118992380D01*
X130369047Y-117992380D02*
X129892857Y-117992380D01*
X129845238Y-118468571D01*
X129892857Y-118420952D01*
X129988095Y-118373333D01*
X130226190Y-118373333D01*
X130321428Y-118420952D01*
X130369047Y-118468571D01*
X130416666Y-118563809D01*
X130416666Y-118801904D01*
X130369047Y-118897142D01*
X130321428Y-118944761D01*
X130226190Y-118992380D01*
X129988095Y-118992380D01*
X129892857Y-118944761D01*
X129845238Y-118897142D01*
%TO.C,J4*%
X133029166Y-100297380D02*
X133029166Y-101011666D01*
X132981547Y-101154523D01*
X132886309Y-101249761D01*
X132743452Y-101297380D01*
X132648214Y-101297380D01*
X133933928Y-100630714D02*
X133933928Y-101297380D01*
X133695833Y-100249761D02*
X133457738Y-100964047D01*
X134076785Y-100964047D01*
%TO.C,J3*%
X169029166Y-141397380D02*
X169029166Y-142111666D01*
X168981547Y-142254523D01*
X168886309Y-142349761D01*
X168743452Y-142397380D01*
X168648214Y-142397380D01*
X169410119Y-141397380D02*
X170029166Y-141397380D01*
X169695833Y-141778333D01*
X169838690Y-141778333D01*
X169933928Y-141825952D01*
X169981547Y-141873571D01*
X170029166Y-141968809D01*
X170029166Y-142206904D01*
X169981547Y-142302142D01*
X169933928Y-142349761D01*
X169838690Y-142397380D01*
X169552976Y-142397380D01*
X169457738Y-142349761D01*
X169410119Y-142302142D01*
%TO.C,J2*%
X167166666Y-84202380D02*
X167166666Y-84916666D01*
X167119047Y-85059523D01*
X167023809Y-85154761D01*
X166880952Y-85202380D01*
X166785714Y-85202380D01*
X167595238Y-84297619D02*
X167642857Y-84250000D01*
X167738095Y-84202380D01*
X167976190Y-84202380D01*
X168071428Y-84250000D01*
X168119047Y-84297619D01*
X168166666Y-84392857D01*
X168166666Y-84488095D01*
X168119047Y-84630952D01*
X167547619Y-85202380D01*
X168166666Y-85202380D01*
%TO.C,J1*%
X134916666Y-84202380D02*
X134916666Y-84916666D01*
X134869047Y-85059523D01*
X134773809Y-85154761D01*
X134630952Y-85202380D01*
X134535714Y-85202380D01*
X135916666Y-85202380D02*
X135345238Y-85202380D01*
X135630952Y-85202380D02*
X135630952Y-84202380D01*
X135535714Y-84345238D01*
X135440476Y-84440476D01*
X135345238Y-84488095D01*
%TO.C,U2*%
X150600595Y-113387380D02*
X150600595Y-114196904D01*
X150648214Y-114292142D01*
X150695833Y-114339761D01*
X150791071Y-114387380D01*
X150981547Y-114387380D01*
X151076785Y-114339761D01*
X151124404Y-114292142D01*
X151172023Y-114196904D01*
X151172023Y-113387380D01*
X151600595Y-113482619D02*
X151648214Y-113435000D01*
X151743452Y-113387380D01*
X151981547Y-113387380D01*
X152076785Y-113435000D01*
X152124404Y-113482619D01*
X152172023Y-113577857D01*
X152172023Y-113673095D01*
X152124404Y-113815952D01*
X151552976Y-114387380D01*
X152172023Y-114387380D01*
X141480595Y-143073571D02*
X141813928Y-143073571D01*
X141956785Y-143597380D02*
X141480595Y-143597380D01*
X141480595Y-142597380D01*
X141956785Y-142597380D01*
X142385357Y-142930714D02*
X142385357Y-143597380D01*
X142385357Y-143025952D02*
X142432976Y-142978333D01*
X142528214Y-142930714D01*
X142671071Y-142930714D01*
X142766309Y-142978333D01*
X142813928Y-143073571D01*
X142813928Y-143597380D01*
X143718690Y-143597380D02*
X143718690Y-143073571D01*
X143671071Y-142978333D01*
X143575833Y-142930714D01*
X143385357Y-142930714D01*
X143290119Y-142978333D01*
X143718690Y-143549761D02*
X143623452Y-143597380D01*
X143385357Y-143597380D01*
X143290119Y-143549761D01*
X143242500Y-143454523D01*
X143242500Y-143359285D01*
X143290119Y-143264047D01*
X143385357Y-143216428D01*
X143623452Y-143216428D01*
X143718690Y-143168809D01*
X144194880Y-143597380D02*
X144194880Y-142597380D01*
X144194880Y-142978333D02*
X144290119Y-142930714D01*
X144480595Y-142930714D01*
X144575833Y-142978333D01*
X144623452Y-143025952D01*
X144671071Y-143121190D01*
X144671071Y-143406904D01*
X144623452Y-143502142D01*
X144575833Y-143549761D01*
X144480595Y-143597380D01*
X144290119Y-143597380D01*
X144194880Y-143549761D01*
X145242500Y-143597380D02*
X145147261Y-143549761D01*
X145099642Y-143454523D01*
X145099642Y-142597380D01*
X146004404Y-143549761D02*
X145909166Y-143597380D01*
X145718690Y-143597380D01*
X145623452Y-143549761D01*
X145575833Y-143454523D01*
X145575833Y-143073571D01*
X145623452Y-142978333D01*
X145718690Y-142930714D01*
X145909166Y-142930714D01*
X146004404Y-142978333D01*
X146052023Y-143073571D01*
X146052023Y-143168809D01*
X145575833Y-143264047D01*
X157863452Y-143073571D02*
X158006309Y-143121190D01*
X158053928Y-143168809D01*
X158101547Y-143264047D01*
X158101547Y-143406904D01*
X158053928Y-143502142D01*
X158006309Y-143549761D01*
X157911071Y-143597380D01*
X157530119Y-143597380D01*
X157530119Y-142597380D01*
X157863452Y-142597380D01*
X157958690Y-142645000D01*
X158006309Y-142692619D01*
X158053928Y-142787857D01*
X158053928Y-142883095D01*
X158006309Y-142978333D01*
X157958690Y-143025952D01*
X157863452Y-143073571D01*
X157530119Y-143073571D01*
X158672976Y-143597380D02*
X158577738Y-143549761D01*
X158530119Y-143502142D01*
X158482500Y-143406904D01*
X158482500Y-143121190D01*
X158530119Y-143025952D01*
X158577738Y-142978333D01*
X158672976Y-142930714D01*
X158815833Y-142930714D01*
X158911071Y-142978333D01*
X158958690Y-143025952D01*
X159006309Y-143121190D01*
X159006309Y-143406904D01*
X158958690Y-143502142D01*
X158911071Y-143549761D01*
X158815833Y-143597380D01*
X158672976Y-143597380D01*
X159577738Y-143597380D02*
X159482500Y-143549761D01*
X159434880Y-143502142D01*
X159387261Y-143406904D01*
X159387261Y-143121190D01*
X159434880Y-143025952D01*
X159482500Y-142978333D01*
X159577738Y-142930714D01*
X159720595Y-142930714D01*
X159815833Y-142978333D01*
X159863452Y-143025952D01*
X159911071Y-143121190D01*
X159911071Y-143406904D01*
X159863452Y-143502142D01*
X159815833Y-143549761D01*
X159720595Y-143597380D01*
X159577738Y-143597380D01*
X160196785Y-142930714D02*
X160577738Y-142930714D01*
X160339642Y-142597380D02*
X160339642Y-143454523D01*
X160387261Y-143549761D01*
X160482500Y-143597380D01*
X160577738Y-143597380D01*
X150100595Y-146407380D02*
X150100595Y-147216904D01*
X150148214Y-147312142D01*
X150195833Y-147359761D01*
X150291071Y-147407380D01*
X150481547Y-147407380D01*
X150576785Y-147359761D01*
X150624404Y-147312142D01*
X150672023Y-147216904D01*
X150672023Y-146407380D01*
X151100595Y-147359761D02*
X151243452Y-147407380D01*
X151481547Y-147407380D01*
X151576785Y-147359761D01*
X151624404Y-147312142D01*
X151672023Y-147216904D01*
X151672023Y-147121666D01*
X151624404Y-147026428D01*
X151576785Y-146978809D01*
X151481547Y-146931190D01*
X151291071Y-146883571D01*
X151195833Y-146835952D01*
X151148214Y-146788333D01*
X151100595Y-146693095D01*
X151100595Y-146597857D01*
X151148214Y-146502619D01*
X151195833Y-146455000D01*
X151291071Y-146407380D01*
X151529166Y-146407380D01*
X151672023Y-146455000D01*
X152433928Y-146883571D02*
X152576785Y-146931190D01*
X152624404Y-146978809D01*
X152672023Y-147074047D01*
X152672023Y-147216904D01*
X152624404Y-147312142D01*
X152576785Y-147359761D01*
X152481547Y-147407380D01*
X152100595Y-147407380D01*
X152100595Y-146407380D01*
X152433928Y-146407380D01*
X152529166Y-146455000D01*
X152576785Y-146502619D01*
X152624404Y-146597857D01*
X152624404Y-146693095D01*
X152576785Y-146788333D01*
X152529166Y-146835952D01*
X152433928Y-146883571D01*
X152100595Y-146883571D01*
%TO.C,C1*%
X157969642Y-80841666D02*
X158017261Y-80889285D01*
X158064880Y-81032142D01*
X158064880Y-81127380D01*
X158017261Y-81270238D01*
X157922023Y-81365476D01*
X157826785Y-81413095D01*
X157636309Y-81460714D01*
X157493452Y-81460714D01*
X157302976Y-81413095D01*
X157207738Y-81365476D01*
X157112500Y-81270238D01*
X157064880Y-81127380D01*
X157064880Y-81032142D01*
X157112500Y-80889285D01*
X157160119Y-80841666D01*
X158064880Y-79889285D02*
X158064880Y-80460714D01*
X158064880Y-80175000D02*
X157064880Y-80175000D01*
X157207738Y-80270238D01*
X157302976Y-80365476D01*
X157350595Y-80460714D01*
%TO.C,H2*%
X46788095Y15747619D02*
X46788095Y16747619D01*
X46788095Y16271428D02*
X47359523Y16271428D01*
X47359523Y15747619D02*
X47359523Y16747619D01*
X47788095Y16652380D02*
X47835714Y16700000D01*
X47930952Y16747619D01*
X48169047Y16747619D01*
X48264285Y16700000D01*
X48311904Y16652380D01*
X48359523Y16557142D01*
X48359523Y16461904D01*
X48311904Y16319047D01*
X47740476Y15747619D01*
X48359523Y15747619D01*
%TO.C,H3*%
X50163095Y15372619D02*
X50163095Y16372619D01*
X50163095Y15896428D02*
X50734523Y15896428D01*
X50734523Y15372619D02*
X50734523Y16372619D01*
X51115476Y16372619D02*
X51734523Y16372619D01*
X51401190Y15991666D01*
X51544047Y15991666D01*
X51639285Y15944047D01*
X51686904Y15896428D01*
X51734523Y15801190D01*
X51734523Y15563095D01*
X51686904Y15467857D01*
X51639285Y15420238D01*
X51544047Y15372619D01*
X51258333Y15372619D01*
X51163095Y15420238D01*
X51115476Y15467857D01*
%TO.C,U1*%
X141635595Y-76312380D02*
X141635595Y-77121904D01*
X141683214Y-77217142D01*
X141730833Y-77264761D01*
X141826071Y-77312380D01*
X142016547Y-77312380D01*
X142111785Y-77264761D01*
X142159404Y-77217142D01*
X142207023Y-77121904D01*
X142207023Y-76312380D01*
X143207023Y-77312380D02*
X142635595Y-77312380D01*
X142921309Y-77312380D02*
X142921309Y-76312380D01*
X142826071Y-76455238D01*
X142730833Y-76550476D01*
X142635595Y-76598095D01*
%TO.C,U3*%
X151790595Y-115137380D02*
X151790595Y-115946904D01*
X151838214Y-116042142D01*
X151885833Y-116089761D01*
X151981071Y-116137380D01*
X152171547Y-116137380D01*
X152266785Y-116089761D01*
X152314404Y-116042142D01*
X152362023Y-115946904D01*
X152362023Y-115137380D01*
X152742976Y-115137380D02*
X153362023Y-115137380D01*
X153028690Y-115518333D01*
X153171547Y-115518333D01*
X153266785Y-115565952D01*
X153314404Y-115613571D01*
X153362023Y-115708809D01*
X153362023Y-115946904D01*
X153314404Y-116042142D01*
X153266785Y-116089761D01*
X153171547Y-116137380D01*
X152885833Y-116137380D01*
X152790595Y-116089761D01*
X152742976Y-116042142D01*
%TO.C,H1*%
X47663095Y14997619D02*
X47663095Y15997619D01*
X47663095Y15521428D02*
X48234523Y15521428D01*
X48234523Y14997619D02*
X48234523Y15997619D01*
X49234523Y14997619D02*
X48663095Y14997619D01*
X48948809Y14997619D02*
X48948809Y15997619D01*
X48853571Y15854761D01*
X48758333Y15759523D01*
X48663095Y15711904D01*
%TO.C,C2*%
X168504642Y-80841666D02*
X168552261Y-80889285D01*
X168599880Y-81032142D01*
X168599880Y-81127380D01*
X168552261Y-81270238D01*
X168457023Y-81365476D01*
X168361785Y-81413095D01*
X168171309Y-81460714D01*
X168028452Y-81460714D01*
X167837976Y-81413095D01*
X167742738Y-81365476D01*
X167647500Y-81270238D01*
X167599880Y-81127380D01*
X167599880Y-81032142D01*
X167647500Y-80889285D01*
X167695119Y-80841666D01*
X167695119Y-80460714D02*
X167647500Y-80413095D01*
X167599880Y-80317857D01*
X167599880Y-80079761D01*
X167647500Y-79984523D01*
X167695119Y-79936904D01*
X167790357Y-79889285D01*
X167885595Y-79889285D01*
X168028452Y-79936904D01*
X168599880Y-80508333D01*
X168599880Y-79889285D01*
%TO.C,H4*%
X47288095Y17122619D02*
X47288095Y18122619D01*
X47288095Y17646428D02*
X47859523Y17646428D01*
X47859523Y17122619D02*
X47859523Y18122619D01*
X48764285Y17789285D02*
X48764285Y17122619D01*
X48526190Y18170238D02*
X48288095Y17455952D01*
X48907142Y17455952D01*
D12*
%TO.C,J8*%
X153337500Y-96255000D02*
X152007500Y-96255000D01*
X157207500Y-96255000D02*
X157207500Y-93595000D01*
X154607500Y-96255000D02*
X157207500Y-96255000D01*
X154607500Y-96255000D02*
X154607500Y-93595000D01*
X152007500Y-96255000D02*
X152007500Y-94925000D01*
X154607500Y-93595000D02*
X157207500Y-93595000D01*
%TO.C,J7*%
X153337500Y-92255000D02*
X152007500Y-92255000D01*
X157207500Y-92255000D02*
X157207500Y-89595000D01*
X154607500Y-92255000D02*
X157207500Y-92255000D01*
X154607500Y-92255000D02*
X154607500Y-89595000D01*
X152007500Y-92255000D02*
X152007500Y-90925000D01*
X154607500Y-89595000D02*
X157207500Y-89595000D01*
%TO.C,J6*%
X172168500Y-119796000D02*
X172168500Y-129956000D01*
X179788500Y-129956000D02*
X179788500Y-119796000D01*
X178518500Y-119796000D02*
X178518500Y-129956000D01*
X179788500Y-119796000D02*
X172168500Y-119796000D01*
X172168500Y-129956000D02*
X179788500Y-129956000D01*
%TO.C,J5*%
X130385500Y-119460000D02*
X122765500Y-119460000D01*
X122765500Y-129620000D02*
X130385500Y-129620000D01*
X124035500Y-129620000D02*
X124035500Y-119460000D01*
X122765500Y-119460000D02*
X122765500Y-129620000D01*
X130385500Y-129620000D02*
X130385500Y-119460000D01*
%TO.C,J4*%
X134692500Y-104885000D02*
X134692500Y-140505000D01*
X132032500Y-140505000D02*
X134692500Y-140505000D01*
X134692500Y-102285000D02*
X134692500Y-103615000D01*
X133362500Y-102285000D02*
X134692500Y-102285000D01*
X132032500Y-104885000D02*
X132032500Y-140505000D01*
X132032500Y-104885000D02*
X134692500Y-104885000D01*
%TO.C,J3*%
X170692500Y-137905000D02*
X168032500Y-137905000D01*
X170692500Y-137905000D02*
X170692500Y-102285000D01*
X169362500Y-140505000D02*
X168032500Y-140505000D01*
X168032500Y-140505000D02*
X168032500Y-139175000D01*
X170692500Y-102285000D02*
X168032500Y-102285000D01*
X168032500Y-137905000D02*
X168032500Y-102285000D01*
%TO.C,J2*%
X166990000Y-95830000D02*
X174610000Y-95830000D01*
X174610000Y-85670000D02*
X166990000Y-85670000D01*
X173340000Y-85670000D02*
X173340000Y-95830000D01*
X174610000Y-95830000D02*
X174610000Y-85670000D01*
X166990000Y-85670000D02*
X166990000Y-95830000D01*
%TO.C,J1*%
X135667500Y-85670000D02*
X128047500Y-85670000D01*
X128047500Y-95830000D02*
X135667500Y-95830000D01*
X129317500Y-95830000D02*
X129317500Y-85670000D01*
X128047500Y-85670000D02*
X128047500Y-95830000D01*
X135667500Y-95830000D02*
X135667500Y-85670000D01*
D13*
%TO.C,U2*%
X146682500Y-120285000D02*
G75*
G03*
X146682500Y-120285000I-400000J0D01*
G01*
D12*
X141162500Y-146925000D02*
G75*
G03*
X141162500Y-146925000I-1500000J0D01*
G01*
D14*
X144042500Y-146320000D02*
G75*
G03*
X144042500Y-146320000I-300000J0D01*
G01*
D12*
X164562500Y-99425000D02*
G75*
G03*
X164562500Y-99425000I-1500000J0D01*
G01*
D14*
X159282500Y-146320000D02*
G75*
G03*
X159282500Y-146320000I-300000J0D01*
G01*
D12*
X164562500Y-146925000D02*
G75*
G03*
X164562500Y-146925000I-1500000J0D01*
G01*
X141162500Y-99425000D02*
G75*
G03*
X141162500Y-99425000I-1500000J0D01*
G01*
X163362500Y-148925000D02*
G75*
G03*
X165362500Y-146925000I0J2000000D01*
G01*
X137362500Y-146925000D02*
G75*
G03*
X139362500Y-148925000I1999999J-1D01*
G01*
X165362500Y-99425000D02*
G75*
G03*
X163362500Y-97425000I-2000000J0D01*
G01*
X139362500Y-97425000D02*
G75*
G03*
X137362500Y-99425000I-1J-1999999D01*
G01*
X160252500Y-148225000D02*
X157712500Y-148225000D01*
X158862500Y-104425000D02*
X158862500Y-122425000D01*
X139362500Y-97425000D02*
X163362500Y-97425000D01*
X153902500Y-99457000D02*
X158982500Y-99457000D01*
X147362500Y-142925000D02*
X155362500Y-142925000D01*
X157712500Y-148225000D02*
X157712500Y-144415000D01*
X142472500Y-103775000D02*
X142472500Y-98695000D01*
X157712500Y-144415000D02*
X160252500Y-144415000D01*
X151362500Y-99457000D02*
X151362500Y-101489000D01*
X155362500Y-142925000D02*
X155362500Y-148925000D01*
X143742500Y-99457000D02*
X146282500Y-99457000D01*
X160252500Y-98695000D02*
X160252500Y-103775000D01*
X145012500Y-144415000D02*
X145012500Y-148225000D01*
X158982500Y-99457000D02*
X158982500Y-103013000D01*
X142472500Y-148225000D02*
X142472500Y-144415000D01*
X146282500Y-99457000D02*
X146282500Y-101489000D01*
X158862500Y-122425000D02*
X143862500Y-122425000D01*
X151362500Y-101489000D02*
X153902500Y-101489000D01*
X148822500Y-101489000D02*
X148822500Y-99457000D01*
X142472500Y-144415000D02*
X145012500Y-144415000D01*
X146282500Y-101489000D02*
X148822500Y-101489000D01*
X147362500Y-142925000D02*
X147362500Y-148925000D01*
X142472500Y-98695000D02*
X160252500Y-98695000D01*
X143862500Y-122425000D02*
X143862500Y-104425000D01*
X139362500Y-148925000D02*
X163362500Y-148925000D01*
X160252500Y-144415000D02*
X160252500Y-148225000D01*
X165362500Y-146925000D02*
X165362500Y-99425000D01*
X148822500Y-99457000D02*
X151362500Y-99457000D01*
X143742500Y-103013000D02*
X143742500Y-99457000D01*
X160252500Y-103775000D02*
X142472500Y-103775000D01*
X137362500Y-99425000D02*
X137362500Y-146925000D01*
X156442500Y-99457000D02*
X156442500Y-103013000D01*
X153902500Y-101489000D02*
X153902500Y-99457000D01*
X145012500Y-148225000D02*
X142472500Y-148225000D01*
X143862500Y-104425000D02*
X158862500Y-104425000D01*
%TO.C,C1*%
X155307500Y-83516000D02*
X149417500Y-83516000D01*
X156404500Y-81235000D02*
X148320500Y-81235000D01*
X151322500Y-81516000D02*
X148368500Y-81516000D01*
X156438500Y-80875000D02*
X148286500Y-80875000D01*
X156423500Y-81075000D02*
X148301500Y-81075000D01*
X151322500Y-81956000D02*
X148485500Y-81956000D01*
X154649500Y-84076000D02*
X150075500Y-84076000D01*
X156212500Y-82036000D02*
X153402500Y-82036000D01*
X156309500Y-81716000D02*
X153402500Y-81716000D01*
X154007500Y-84436000D02*
X150717500Y-84436000D01*
X154867500Y-83916000D02*
X149857500Y-83916000D01*
X156439500Y-80835000D02*
X148285500Y-80835000D01*
X151322500Y-82716000D02*
X148822500Y-82716000D01*
X151322500Y-81636000D02*
X148395500Y-81636000D01*
X151322500Y-82236000D02*
X148588500Y-82236000D01*
X155269500Y-83556000D02*
X149455500Y-83556000D01*
X156048500Y-82436000D02*
X153402500Y-82436000D01*
X156102500Y-82316000D02*
X153402500Y-82316000D01*
X155059500Y-83756000D02*
X149665500Y-83756000D01*
X156364500Y-81476000D02*
X153402500Y-81476000D01*
X151322500Y-81436000D02*
X148352500Y-81436000D01*
X155754500Y-82956000D02*
X153402500Y-82956000D01*
X156152500Y-82196000D02*
X153402500Y-82196000D01*
X151322500Y-81876000D02*
X148460500Y-81876000D01*
X156251500Y-81916000D02*
X153402500Y-81916000D01*
X156329500Y-81636000D02*
X153402500Y-81636000D01*
X151322500Y-82796000D02*
X148869500Y-82796000D01*
X154918500Y-83876000D02*
X149806500Y-83876000D01*
X154175500Y-84356000D02*
X150549500Y-84356000D01*
X156372500Y-81436000D02*
X153402500Y-81436000D01*
X156392500Y-81315000D02*
X148332500Y-81315000D01*
X156442500Y-80715000D02*
X148282500Y-80715000D01*
X155831500Y-82836000D02*
X153402500Y-82836000D01*
X156298500Y-81756000D02*
X153402500Y-81756000D01*
X151322500Y-81996000D02*
X148499500Y-81996000D01*
X155188500Y-83636000D02*
X149536500Y-83636000D01*
X154528500Y-84156000D02*
X150196500Y-84156000D01*
X155486500Y-83316000D02*
X153402500Y-83316000D01*
X151322500Y-83196000D02*
X149142500Y-83196000D01*
X156427500Y-81035000D02*
X148297500Y-81035000D01*
X153591500Y-84596000D02*
X151133500Y-84596000D01*
X151322500Y-82636000D02*
X148778500Y-82636000D01*
X156338500Y-81596000D02*
X153402500Y-81596000D01*
X155077500Y-76665302D02*
X154277500Y-76665302D01*
X156287500Y-81796000D02*
X153402500Y-81796000D01*
X151322500Y-81476000D02*
X148360500Y-81476000D01*
X156319500Y-81676000D02*
X153402500Y-81676000D01*
X151322500Y-82356000D02*
X148640500Y-82356000D01*
X151322500Y-82916000D02*
X148944500Y-82916000D01*
X156433500Y-80955000D02*
X148291500Y-80955000D01*
X156197500Y-82076000D02*
X153402500Y-82076000D01*
X155968500Y-82596000D02*
X153402500Y-82596000D01*
X151322500Y-82476000D02*
X148696500Y-82476000D01*
X151322500Y-83236000D02*
X149173500Y-83236000D01*
X151322500Y-81836000D02*
X148448500Y-81836000D01*
X156356500Y-81516000D02*
X153402500Y-81516000D01*
X151322500Y-82596000D02*
X148756500Y-82596000D01*
X155013500Y-83796000D02*
X149711500Y-83796000D01*
X151322500Y-82316000D02*
X148622500Y-82316000D01*
X151322500Y-81916000D02*
X148473500Y-81916000D01*
X151322500Y-82996000D02*
X148997500Y-82996000D01*
X151322500Y-81396000D02*
X148345500Y-81396000D01*
X151322500Y-82676000D02*
X148800500Y-82676000D01*
X151322500Y-83276000D02*
X149206500Y-83276000D01*
X151322500Y-83396000D02*
X149307500Y-83396000D01*
X155103500Y-83716000D02*
X149621500Y-83716000D01*
X155879500Y-82756000D02*
X153402500Y-82756000D01*
X151322500Y-82076000D02*
X148527500Y-82076000D01*
X155902500Y-82716000D02*
X153402500Y-82716000D01*
X151322500Y-83316000D02*
X149238500Y-83316000D01*
X155381500Y-83436000D02*
X153402500Y-83436000D01*
X156410500Y-81195000D02*
X148314500Y-81195000D01*
X151322500Y-82396000D02*
X148658500Y-82396000D01*
X151322500Y-82196000D02*
X148572500Y-82196000D01*
X155700500Y-83036000D02*
X153402500Y-83036000D01*
X156386500Y-81355000D02*
X148338500Y-81355000D01*
X151322500Y-81556000D02*
X148377500Y-81556000D01*
X155452500Y-83356000D02*
X153402500Y-83356000D01*
X154326500Y-84276000D02*
X150398500Y-84276000D01*
X154464500Y-84196000D02*
X150260500Y-84196000D01*
X152895500Y-84756000D02*
X151829500Y-84756000D01*
X154762500Y-83996000D02*
X149962500Y-83996000D01*
X151322500Y-82956000D02*
X148970500Y-82956000D01*
X155642500Y-83116000D02*
X153402500Y-83116000D01*
X156225500Y-81996000D02*
X153402500Y-81996000D01*
X154396500Y-84236000D02*
X150328500Y-84236000D01*
X151322500Y-82756000D02*
X148845500Y-82756000D01*
X155924500Y-82676000D02*
X153402500Y-82676000D01*
X156441500Y-80795000D02*
X148283500Y-80795000D01*
X151322500Y-82116000D02*
X148541500Y-82116000D01*
X155345500Y-83476000D02*
X149379500Y-83476000D01*
X151322500Y-83436000D02*
X149343500Y-83436000D01*
X151322500Y-83356000D02*
X149272500Y-83356000D01*
X151322500Y-82556000D02*
X148735500Y-82556000D01*
X156436500Y-80915000D02*
X148288500Y-80915000D01*
X155146500Y-83676000D02*
X149578500Y-83676000D01*
X155417500Y-83396000D02*
X153402500Y-83396000D01*
X156066500Y-82396000D02*
X153402500Y-82396000D01*
X156183500Y-82116000D02*
X153402500Y-82116000D01*
X151322500Y-83036000D02*
X149024500Y-83036000D01*
X151322500Y-81756000D02*
X148426500Y-81756000D01*
X156239500Y-81956000D02*
X153402500Y-81956000D01*
X156084500Y-82356000D02*
X153402500Y-82356000D01*
X151322500Y-83116000D02*
X149082500Y-83116000D01*
X155855500Y-82796000D02*
X153402500Y-82796000D01*
X151322500Y-81676000D02*
X148405500Y-81676000D01*
X154677500Y-76265302D02*
X154677500Y-77065302D01*
X153130500Y-84716000D02*
X151594500Y-84716000D01*
X151322500Y-82156000D02*
X148557500Y-82156000D01*
X156264500Y-81876000D02*
X153402500Y-81876000D01*
X151322500Y-81716000D02*
X148415500Y-81716000D01*
X155229500Y-83596000D02*
X149495500Y-83596000D01*
X156347500Y-81556000D02*
X153402500Y-81556000D01*
X154252500Y-84316000D02*
X150472500Y-84316000D01*
X151322500Y-83156000D02*
X149112500Y-83156000D01*
X155727500Y-82996000D02*
X153402500Y-82996000D01*
X155946500Y-82636000D02*
X153402500Y-82636000D01*
X151322500Y-81796000D02*
X148437500Y-81796000D01*
X151322500Y-82276000D02*
X148605500Y-82276000D01*
X154707500Y-84036000D02*
X150017500Y-84036000D01*
X151322500Y-82876000D02*
X148918500Y-82876000D01*
X156028500Y-82476000D02*
X153402500Y-82476000D01*
X155551500Y-83236000D02*
X153402500Y-83236000D01*
X155582500Y-83196000D02*
X153402500Y-83196000D01*
X156136500Y-82236000D02*
X153402500Y-82236000D01*
X155989500Y-82556000D02*
X153402500Y-82556000D01*
X153914500Y-84476000D02*
X150810500Y-84476000D01*
X156442500Y-80675000D02*
X148282500Y-80675000D01*
X151322500Y-82836000D02*
X148893500Y-82836000D01*
X156167500Y-82156000D02*
X153402500Y-82156000D01*
X151322500Y-81596000D02*
X148386500Y-81596000D01*
X156414500Y-81155000D02*
X148310500Y-81155000D01*
X156379500Y-81396000D02*
X153402500Y-81396000D01*
X155780500Y-82916000D02*
X153402500Y-82916000D01*
X155518500Y-83276000D02*
X153402500Y-83276000D01*
X154590500Y-84116000D02*
X150134500Y-84116000D01*
X155612500Y-83156000D02*
X153402500Y-83156000D01*
X153708500Y-84556000D02*
X151016500Y-84556000D01*
X151322500Y-82036000D02*
X148512500Y-82036000D01*
X156442500Y-80755000D02*
X148282500Y-80755000D01*
X154966500Y-83836000D02*
X149758500Y-83836000D01*
X156399500Y-81275000D02*
X148325500Y-81275000D01*
X156009500Y-82516000D02*
X153402500Y-82516000D01*
X155671500Y-83076000D02*
X153402500Y-83076000D01*
X153460500Y-84636000D02*
X151264500Y-84636000D01*
X154093500Y-84396000D02*
X150631500Y-84396000D01*
X156430500Y-80995000D02*
X148294500Y-80995000D01*
X153815500Y-84516000D02*
X150909500Y-84516000D01*
X151322500Y-82516000D02*
X148715500Y-82516000D01*
X155806500Y-82876000D02*
X153402500Y-82876000D01*
X156119500Y-82276000D02*
X153402500Y-82276000D01*
X151322500Y-82436000D02*
X148676500Y-82436000D01*
X156419500Y-81115000D02*
X148305500Y-81115000D01*
X153310500Y-84676000D02*
X151414500Y-84676000D01*
X154816500Y-83956000D02*
X149908500Y-83956000D01*
X156276500Y-81836000D02*
X153402500Y-81836000D01*
X151322500Y-83076000D02*
X149053500Y-83076000D01*
X156482500Y-80675000D02*
G75*
G03*
X156482500Y-80675000I-4120000J0D01*
G01*
%TO.C,U1*%
X137277500Y-77860000D02*
X137277500Y-93750000D01*
X137277500Y-77860000D02*
X147517500Y-77860000D01*
X147517500Y-77860000D02*
X147517500Y-93750000D01*
X137277500Y-93750000D02*
X147517500Y-93750000D01*
X142397500Y-93750000D02*
X142397500Y-96290000D01*
X144937500Y-93750000D02*
X144937500Y-96290000D01*
X139857500Y-93750000D02*
X139857500Y-96290000D01*
%TO.C,U3*%
X151552500Y-116685000D02*
G75*
G03*
X153552500Y-116685000I1000000J0D01*
G01*
X151552500Y-116685000D02*
X149902500Y-116685000D01*
X149902500Y-137125000D02*
X155202500Y-137125000D01*
X155202500Y-137125000D02*
X155202500Y-116685000D01*
X149902500Y-116685000D02*
X149902500Y-137125000D01*
X155202500Y-116685000D02*
X153552500Y-116685000D01*
%TO.C,C2*%
X165842500Y-83516000D02*
X159952500Y-83516000D01*
X166939500Y-81235000D02*
X158855500Y-81235000D01*
X161857500Y-81516000D02*
X158903500Y-81516000D01*
X166973500Y-80875000D02*
X158821500Y-80875000D01*
X166958500Y-81075000D02*
X158836500Y-81075000D01*
X161857500Y-81956000D02*
X159020500Y-81956000D01*
X165184500Y-84076000D02*
X160610500Y-84076000D01*
X166747500Y-82036000D02*
X163937500Y-82036000D01*
X166844500Y-81716000D02*
X163937500Y-81716000D01*
X164542500Y-84436000D02*
X161252500Y-84436000D01*
X165402500Y-83916000D02*
X160392500Y-83916000D01*
X166974500Y-80835000D02*
X158820500Y-80835000D01*
X161857500Y-82716000D02*
X159357500Y-82716000D01*
X161857500Y-81636000D02*
X158930500Y-81636000D01*
X161857500Y-82236000D02*
X159123500Y-82236000D01*
X165804500Y-83556000D02*
X159990500Y-83556000D01*
X166583500Y-82436000D02*
X163937500Y-82436000D01*
X166637500Y-82316000D02*
X163937500Y-82316000D01*
X165594500Y-83756000D02*
X160200500Y-83756000D01*
X166899500Y-81476000D02*
X163937500Y-81476000D01*
X161857500Y-81436000D02*
X158887500Y-81436000D01*
X166289500Y-82956000D02*
X163937500Y-82956000D01*
X166687500Y-82196000D02*
X163937500Y-82196000D01*
X161857500Y-81876000D02*
X158995500Y-81876000D01*
X166786500Y-81916000D02*
X163937500Y-81916000D01*
X166864500Y-81636000D02*
X163937500Y-81636000D01*
X161857500Y-82796000D02*
X159404500Y-82796000D01*
X165453500Y-83876000D02*
X160341500Y-83876000D01*
X164710500Y-84356000D02*
X161084500Y-84356000D01*
X166907500Y-81436000D02*
X163937500Y-81436000D01*
X166927500Y-81315000D02*
X158867500Y-81315000D01*
X166977500Y-80715000D02*
X158817500Y-80715000D01*
X166366500Y-82836000D02*
X163937500Y-82836000D01*
X166833500Y-81756000D02*
X163937500Y-81756000D01*
X161857500Y-81996000D02*
X159034500Y-81996000D01*
X165723500Y-83636000D02*
X160071500Y-83636000D01*
X165063500Y-84156000D02*
X160731500Y-84156000D01*
X166021500Y-83316000D02*
X163937500Y-83316000D01*
X161857500Y-83196000D02*
X159677500Y-83196000D01*
X166962500Y-81035000D02*
X158832500Y-81035000D01*
X164126500Y-84596000D02*
X161668500Y-84596000D01*
X161857500Y-82636000D02*
X159313500Y-82636000D01*
X166873500Y-81596000D02*
X163937500Y-81596000D01*
X165612500Y-76665302D02*
X164812500Y-76665302D01*
X166822500Y-81796000D02*
X163937500Y-81796000D01*
X161857500Y-81476000D02*
X158895500Y-81476000D01*
X166854500Y-81676000D02*
X163937500Y-81676000D01*
X161857500Y-82356000D02*
X159175500Y-82356000D01*
X161857500Y-82916000D02*
X159479500Y-82916000D01*
X166968500Y-80955000D02*
X158826500Y-80955000D01*
X166732500Y-82076000D02*
X163937500Y-82076000D01*
X166503500Y-82596000D02*
X163937500Y-82596000D01*
X161857500Y-82476000D02*
X159231500Y-82476000D01*
X161857500Y-83236000D02*
X159708500Y-83236000D01*
X161857500Y-81836000D02*
X158983500Y-81836000D01*
X166891500Y-81516000D02*
X163937500Y-81516000D01*
X161857500Y-82596000D02*
X159291500Y-82596000D01*
X165548500Y-83796000D02*
X160246500Y-83796000D01*
X161857500Y-82316000D02*
X159157500Y-82316000D01*
X161857500Y-81916000D02*
X159008500Y-81916000D01*
X161857500Y-82996000D02*
X159532500Y-82996000D01*
X161857500Y-81396000D02*
X158880500Y-81396000D01*
X161857500Y-82676000D02*
X159335500Y-82676000D01*
X161857500Y-83276000D02*
X159741500Y-83276000D01*
X161857500Y-83396000D02*
X159842500Y-83396000D01*
X165638500Y-83716000D02*
X160156500Y-83716000D01*
X166414500Y-82756000D02*
X163937500Y-82756000D01*
X161857500Y-82076000D02*
X159062500Y-82076000D01*
X166437500Y-82716000D02*
X163937500Y-82716000D01*
X161857500Y-83316000D02*
X159773500Y-83316000D01*
X165916500Y-83436000D02*
X163937500Y-83436000D01*
X166945500Y-81195000D02*
X158849500Y-81195000D01*
X161857500Y-82396000D02*
X159193500Y-82396000D01*
X161857500Y-82196000D02*
X159107500Y-82196000D01*
X166235500Y-83036000D02*
X163937500Y-83036000D01*
X166921500Y-81355000D02*
X158873500Y-81355000D01*
X161857500Y-81556000D02*
X158912500Y-81556000D01*
X165987500Y-83356000D02*
X163937500Y-83356000D01*
X164861500Y-84276000D02*
X160933500Y-84276000D01*
X164999500Y-84196000D02*
X160795500Y-84196000D01*
X163430500Y-84756000D02*
X162364500Y-84756000D01*
X165297500Y-83996000D02*
X160497500Y-83996000D01*
X161857500Y-82956000D02*
X159505500Y-82956000D01*
X166177500Y-83116000D02*
X163937500Y-83116000D01*
X166760500Y-81996000D02*
X163937500Y-81996000D01*
X164931500Y-84236000D02*
X160863500Y-84236000D01*
X161857500Y-82756000D02*
X159380500Y-82756000D01*
X166459500Y-82676000D02*
X163937500Y-82676000D01*
X166976500Y-80795000D02*
X158818500Y-80795000D01*
X161857500Y-82116000D02*
X159076500Y-82116000D01*
X165880500Y-83476000D02*
X159914500Y-83476000D01*
X161857500Y-83436000D02*
X159878500Y-83436000D01*
X161857500Y-83356000D02*
X159807500Y-83356000D01*
X161857500Y-82556000D02*
X159270500Y-82556000D01*
X166971500Y-80915000D02*
X158823500Y-80915000D01*
X165681500Y-83676000D02*
X160113500Y-83676000D01*
X165952500Y-83396000D02*
X163937500Y-83396000D01*
X166601500Y-82396000D02*
X163937500Y-82396000D01*
X166718500Y-82116000D02*
X163937500Y-82116000D01*
X161857500Y-83036000D02*
X159559500Y-83036000D01*
X161857500Y-81756000D02*
X158961500Y-81756000D01*
X166774500Y-81956000D02*
X163937500Y-81956000D01*
X166619500Y-82356000D02*
X163937500Y-82356000D01*
X161857500Y-83116000D02*
X159617500Y-83116000D01*
X166390500Y-82796000D02*
X163937500Y-82796000D01*
X161857500Y-81676000D02*
X158940500Y-81676000D01*
X165212500Y-76265302D02*
X165212500Y-77065302D01*
X163665500Y-84716000D02*
X162129500Y-84716000D01*
X161857500Y-82156000D02*
X159092500Y-82156000D01*
X166799500Y-81876000D02*
X163937500Y-81876000D01*
X161857500Y-81716000D02*
X158950500Y-81716000D01*
X165764500Y-83596000D02*
X160030500Y-83596000D01*
X166882500Y-81556000D02*
X163937500Y-81556000D01*
X164787500Y-84316000D02*
X161007500Y-84316000D01*
X161857500Y-83156000D02*
X159647500Y-83156000D01*
X166262500Y-82996000D02*
X163937500Y-82996000D01*
X166481500Y-82636000D02*
X163937500Y-82636000D01*
X161857500Y-81796000D02*
X158972500Y-81796000D01*
X161857500Y-82276000D02*
X159140500Y-82276000D01*
X165242500Y-84036000D02*
X160552500Y-84036000D01*
X161857500Y-82876000D02*
X159453500Y-82876000D01*
X166563500Y-82476000D02*
X163937500Y-82476000D01*
X166086500Y-83236000D02*
X163937500Y-83236000D01*
X166117500Y-83196000D02*
X163937500Y-83196000D01*
X166671500Y-82236000D02*
X163937500Y-82236000D01*
X166524500Y-82556000D02*
X163937500Y-82556000D01*
X164449500Y-84476000D02*
X161345500Y-84476000D01*
X166977500Y-80675000D02*
X158817500Y-80675000D01*
X161857500Y-82836000D02*
X159428500Y-82836000D01*
X166702500Y-82156000D02*
X163937500Y-82156000D01*
X161857500Y-81596000D02*
X158921500Y-81596000D01*
X166949500Y-81155000D02*
X158845500Y-81155000D01*
X166914500Y-81396000D02*
X163937500Y-81396000D01*
X166315500Y-82916000D02*
X163937500Y-82916000D01*
X166053500Y-83276000D02*
X163937500Y-83276000D01*
X165125500Y-84116000D02*
X160669500Y-84116000D01*
X166147500Y-83156000D02*
X163937500Y-83156000D01*
X164243500Y-84556000D02*
X161551500Y-84556000D01*
X161857500Y-82036000D02*
X159047500Y-82036000D01*
X166977500Y-80755000D02*
X158817500Y-80755000D01*
X165501500Y-83836000D02*
X160293500Y-83836000D01*
X166934500Y-81275000D02*
X158860500Y-81275000D01*
X166544500Y-82516000D02*
X163937500Y-82516000D01*
X166206500Y-83076000D02*
X163937500Y-83076000D01*
X163995500Y-84636000D02*
X161799500Y-84636000D01*
X164628500Y-84396000D02*
X161166500Y-84396000D01*
X166965500Y-80995000D02*
X158829500Y-80995000D01*
X164350500Y-84516000D02*
X161444500Y-84516000D01*
X161857500Y-82516000D02*
X159250500Y-82516000D01*
X166341500Y-82876000D02*
X163937500Y-82876000D01*
X166654500Y-82276000D02*
X163937500Y-82276000D01*
X161857500Y-82436000D02*
X159211500Y-82436000D01*
X166954500Y-81115000D02*
X158840500Y-81115000D01*
X163845500Y-84676000D02*
X161949500Y-84676000D01*
X165351500Y-83956000D02*
X160443500Y-83956000D01*
X166811500Y-81836000D02*
X163937500Y-81836000D01*
X161857500Y-83076000D02*
X159588500Y-83076000D01*
X167017500Y-80675000D02*
G75*
G03*
X167017500Y-80675000I-4120000J0D01*
G01*
%TD*%
M02*
